<svg xmlns="http://www.w3.org/2000/svg" width="96" height="96" viewBox="0 0 96 96" fill="none">
  <rect width="96" height="96" fill="#090b10"/>
  <g stroke="#60a5fa" stroke-opacity="0.12" stroke-width="1.25">
    <path d="M24 4 40 12 24 20 8 12 24 4Z"/>
    <path d="M24 20V36"/>
    <path d="M40 12V28"/>
    <path d="M8 12V28"/>
    <path d="M24 36 40 28 56 36 40 44 24 36Z"/>
    <path d="M40 44V60"/>
    <path d="M56 36V52"/>
    <path d="M24 36V52"/>
    <path d="M72 4 88 12 72 20 56 12 72 4Z"/>
    <path d="M72 20V36"/>
    <path d="M88 12V28"/>
    <path d="M56 12V28"/>
    <path d="M72 52 88 60 72 68 56 60 72 52Z"/>
    <path d="M72 68V84"/>
    <path d="M88 60V76"/>
    <path d="M56 60V76"/>
  </g>
</svg>
